<?xml version="1.0" encoding="utf-8"?>
<!-- Generator: Adobe Illustrator 22.1.0, SVG Export Plug-In . SVG Version: 6.00 Build 0)  -->
<svg version="1.1" id="Layer_1" xmlns="http://www.w3.org/2000/svg" xmlns:xlink="http://www.w3.org/1999/xlink" x="0px" y="0px"
	 viewBox="0 0 67.9 46.5" style="enable-background:new 0 0 67.9 46.5;" xml:space="preserve">
<g class="st0">
	<g>
		<path fill="#E9D8E1" class="st1" d="M19.3,19.5c0-2.2-1.8-4-4-4c-3.3,0-6-2.7-6-6h2c0,2.2,1.8,4,4,4c3.3,0,6,2.7,6,6c0,2.2,1.8,4,4,4
			c3.3,0,6,2.7,6,6c0,2.2,1.8,4,4,4v2c-3.3,0-6-2.7-6-6c0-2.2-1.8-4-4-4C22,25.5,19.3,22.8,19.3,19.5z M44.8,17.5l8.5,8.5l-1.4,1.4
			L43.4,19C43.4,19,44.8,17.5,44.8,17.5z"/>
	</g>
</g>
</svg>
