<svg xmlns="http://www.w3.org/2000/svg" style="display: none;"><symbol id="nc-tail-right-1" viewBox="0 0 48 48"><title>tail right 1</title><g><g class="nc-icon-wrapper"><path fill="#EFD358" d="M31.41406,8.58594l-2.82812,2.82812L39.17188,22H5c-0.55228,0-1,0.44772-1,1v2c0,0.55228,0.44772,1,1,1 h34.17188L28.58594,36.58594l2.82812,2.82812l14-14c0.78096-0.78097,0.78096-2.04716,0-2.82812L31.41406,8.58594z"/></g></g></symbol><symbol id="nc-tail-right-2" viewBox="0 0 48 48"><title>tail right 2</title><g><g class="nc-icon-wrapper"><line data-cap="butt" data-color="color-2" fill="none" stroke-miterlimit="10" x1="2" y1="24" x2="45" y2="24" stroke-linejoin="miter" stroke-linecap="butt"/> <polyline fill="none" stroke="currentColor" stroke-linecap="square" stroke-miterlimit="10" points="31,10 45,24 31,38 " stroke-linejoin="miter"/></g></g></symbol><symbol id="nc-tail-right-3" viewBox="0 0 48 48"><title>tail right 3</title><g><g class="nc-icon-wrapper"><path fill="currentColor" d="M31,7.171L28.172,10l12,12H1v4h39.172l-12,12L31,40.829l15.414-15.415c0.781-0.781,0.781-2.047,0-2.828 L31,7.171z"/></g></g></symbol><symbol id="nc-heart-2-2" viewBox="0 0 48 48"><title>heart 2 2</title><g><g class="nc-icon-wrapper"><path fill="currentColor" d="M43.192,6.808c-5.068-5.068-13.316-5.068-18.385,0C24.526,7.089,24.257,7.385,24,7.695 c-0.257-0.311-0.526-0.606-0.808-0.888c-5.068-5.068-13.316-5.068-18.385,0s-5.068,13.316,0,18.385l18.485,18.485 c0.195,0.195,0.451,0.293,0.707,0.293s0.512-0.098,0.707-0.293l18.485-18.485C48.261,20.124,48.261,11.876,43.192,6.808z"/></g></g></symbol><symbol id="nc-heart-2-3" viewBox="0 0 48 48"><title>heart 2 3</title><g><g class="nc-icon-wrapper"><path fill="none" stroke="currentColor" stroke-linecap="square" stroke-miterlimit="10" d="M42.485,7.515 c-4.686-4.686-12.284-4.686-16.97,0c-0.577,0.577-1.08,1.2-1.515,1.854c-0.435-0.654-0.938-1.277-1.515-1.854 c-4.686-4.686-12.284-4.686-16.97,0c-4.686,4.686-4.686,12.284,0,16.971L24,42.971l18.485-18.485 C47.172,19.799,47.172,12.201,42.485,7.515z" stroke-linejoin="miter"/></g></g></symbol><symbol id="nc-heart-2-4" viewBox="0 0 48 48"><title>heart 2 4</title><g><g class="nc-icon-wrapper"><path fill="#E86C60" d="M43.192,6.808c-5.068-5.068-13.316-5.068-18.385,0C24.526,7.089,24.257,7.385,24,7.695 c-0.257-0.311-0.526-0.606-0.808-0.888c-5.068-5.068-13.316-5.068-18.385,0s-5.068,13.316,0,18.385l18.485,18.485 c0.195,0.195,0.451,0.293,0.707,0.293s0.512-0.098,0.707-0.293l18.485-18.485C48.261,20.124,48.261,11.876,43.192,6.808z"/></g></g></symbol></svg>